<?xml version="1.0" encoding="UTF-8" standalone="no"?>
<!-- Created with Inkscape (http://www.inkscape.org/) -->

<svg
   width="286.53714mm"
   height="80.801353mm"
   viewBox="0 0 286.53714 80.801353"
   version="1.1"
   id="svg1"
   xml:space="preserve"
   xmlns:xlink="http://www.w3.org/1999/xlink"
   xmlns="http://www.w3.org/2000/svg"
   xmlns:svg="http://www.w3.org/2000/svg"><defs
     id="defs1"><clipPath
       clipPathUnits="userSpaceOnUse"
       id="clipPath30"><circle
         style="opacity:1;fill:none;fill-opacity:1;stroke:#4d4d4d;stroke-width:18.8976;stroke-dasharray:none;stroke-opacity:1"
         id="circle30"
         cx="651.09882"
         cy="230.98416"
         r="400"
         transform="matrix(0.43645722,0.89972501,0.89972501,-0.43645722,0,0)" /></clipPath><clipPath
       clipPathUnits="userSpaceOnUse"
       id="clipPath31"><circle
         style="opacity:1;fill:none;fill-opacity:1;stroke:#4d4d4d;stroke-width:19.3227;stroke-dasharray:none;stroke-opacity:1"
         id="circle31"
         cx="-121.81952"
         cy="882.35376"
         r="408.99814"
         transform="matrix(0.43645722,0.89972501,0.89972501,-0.43645722,0,0)" /></clipPath><clipPath
       clipPathUnits="userSpaceOnUse"
       id="clipPath32"><circle
         style="opacity:1;fill:none;fill-opacity:1;stroke:#4d4d4d;stroke-width:19.3227;stroke-dasharray:none;stroke-opacity:1"
         id="circle43"
         cx="-121.81952"
         cy="882.35376"
         r="408.99814"
         transform="matrix(0.43645722,0.89972501,0.89972501,-0.43645722,0,0)" /></clipPath><clipPath
       clipPathUnits="userSpaceOnUse"
       id="clipPath43"><circle
         style="opacity:1;fill:none;fill-opacity:1;stroke:#4d4d4d;stroke-width:19.3227;stroke-dasharray:none;stroke-opacity:1"
         id="circle44"
         cx="-121.81952"
         cy="882.35376"
         r="408.99814"
         transform="matrix(0.43645722,0.89972501,0.89972501,-0.43645722,0,0)" /></clipPath><clipPath
       clipPathUnits="userSpaceOnUse"
       id="clipPath44"><circle
         style="opacity:1;fill:none;fill-opacity:1;stroke:#4d4d4d;stroke-width:19.3227;stroke-dasharray:none;stroke-opacity:1"
         id="circle45"
         cx="-121.81952"
         cy="882.35376"
         r="408.99814"
         transform="matrix(0.43645722,0.89972501,0.89972501,-0.43645722,0,0)" /></clipPath><clipPath
       clipPathUnits="userSpaceOnUse"
       id="clipPath45"><circle
         style="opacity:1;fill:none;fill-opacity:1;stroke:#4d4d4d;stroke-width:19.3227;stroke-dasharray:none;stroke-opacity:1"
         id="circle46"
         cx="-121.81952"
         cy="882.35376"
         r="408.99814"
         transform="matrix(0.43645722,0.89972501,0.89972501,-0.43645722,0,0)" /></clipPath><clipPath
       clipPathUnits="userSpaceOnUse"
       id="clipPath46"><circle
         style="opacity:1;fill:none;fill-opacity:1;stroke:#4d4d4d;stroke-width:19.3227;stroke-dasharray:none;stroke-opacity:1"
         id="circle47"
         cx="-121.81952"
         cy="882.35376"
         r="408.99814"
         transform="matrix(0.43645722,0.89972501,0.89972501,-0.43645722,0,0)" /></clipPath><clipPath
       clipPathUnits="userSpaceOnUse"
       id="clipPath47"><circle
         style="opacity:1;fill:none;fill-opacity:1;stroke:#4d4d4d;stroke-width:19.3227;stroke-dasharray:none;stroke-opacity:1"
         id="circle48"
         cx="-121.81952"
         cy="882.35376"
         r="408.99814"
         transform="matrix(0.43645722,0.89972501,0.89972501,-0.43645722,0,0)" /></clipPath><clipPath
       clipPathUnits="userSpaceOnUse"
       id="clipPath48"><circle
         style="opacity:1;fill:none;fill-opacity:1;stroke:#4d4d4d;stroke-width:19.3227;stroke-dasharray:none;stroke-opacity:1"
         id="circle49"
         cx="-121.81952"
         cy="882.35376"
         r="408.99814"
         transform="matrix(0.43645722,0.89972501,0.89972501,-0.43645722,0,0)" /></clipPath><clipPath
       clipPathUnits="userSpaceOnUse"
       id="clipPath49"><circle
         style="opacity:1;fill:none;fill-opacity:1;stroke:#4d4d4d;stroke-width:19.3227;stroke-dasharray:none;stroke-opacity:1"
         id="circle50"
         cx="-121.81952"
         cy="882.35376"
         r="408.99814"
         transform="matrix(0.43645722,0.89972501,0.89972501,-0.43645722,0,0)" /></clipPath><clipPath
       clipPathUnits="userSpaceOnUse"
       id="clipPath50"><circle
         style="opacity:1;fill:none;fill-opacity:1;stroke:#4d4d4d;stroke-width:19.3227;stroke-dasharray:none;stroke-opacity:1"
         id="circle51"
         cx="-121.81952"
         cy="882.35376"
         r="408.99814"
         transform="matrix(0.43645722,0.89972501,0.89972501,-0.43645722,0,0)" /></clipPath><clipPath
       clipPathUnits="userSpaceOnUse"
       id="clipPath51"><circle
         style="opacity:1;fill:none;fill-opacity:1;stroke:#4d4d4d;stroke-width:19.3227;stroke-dasharray:none;stroke-opacity:1"
         id="circle52"
         cx="-121.81952"
         cy="882.35376"
         r="408.99814"
         transform="matrix(0.43645722,0.89972501,0.89972501,-0.43645722,0,0)" /></clipPath></defs><g
     id="layer1"
     transform="translate(38.268566,-108.09932)"><g
       id="layer1-3"
       transform="matrix(0.09867107,0,0,0.09867107,-46.408491,100.64501)"><path
         style="opacity:1;fill:#000000;fill-opacity:1;stroke:#000000;stroke-width:18.8976;stroke-dasharray:none;stroke-opacity:1"
         d="M 472,874.49965 C 394.59214,870.51778 318.82618,842.82148 256.76067,795.81875 225.38028,772.05413 195.43297,740.99661 172.56327,708.5 151.27538,678.25105 132.09133,639.56743 120.56497,603.64815 113.85306,582.73204 106.99384,551.37439 104.5532,530.44863 l -0.64748,-5.55137 15.79714,-1.28437 c 131.41933,-10.68495 252.15544,-79.59198 329.54576,-188.07977 24.87396,-34.86897 48.01864,-80.95525 61.121,-121.70573 10.10399,-31.42503 17.85692,-69.54449 20.10003,-98.82739 1.34478,-17.555545 1.3292,-17.5 4.90883,-17.5 1.75494,0 10.09782,1.133512 18.53974,2.51892 67.27207,11.04002 128.49971,38.29199 182.51382,81.23554 14.96879,11.90084 47.25667,44.07929 58.83316,58.63376 47.95452,60.29051 76.43807,129.43262 84.90911,206.11178 1.73626,15.71644 1.73626,62.28356 0,78 -8.52276,77.14734 -37.0343,146.01386 -85.77886,207.18951 -11.25739,14.1283 -43.73006,46.26426 -58.89545,58.28475 -14.70363,11.65448 -38.93543,27.92356 -54.39557,36.52083 C 618.25394,860.94582 543.88241,878.19729 472,874.49965 Z"
         id="path16" /><g
         id="g8"><path
           id="circle2"
           style="opacity:1;fill:#c3ccd3;fill-opacity:1;stroke:none;stroke-width:18.8976"
           d="M 492,85 A 400,400 0 0 0 92,485 400,400 0 0 0 94.837891,524.67188 450,450 0 0 0 531.73242,86.990234 400,400 0 0 0 492,85 Z" /><ellipse
           style="opacity:1;fill:#acb1b7;fill-opacity:1;stroke:none;stroke-width:14.4511;stroke-dasharray:none;stroke-opacity:1"
           id="ellipse8"
           cx="165"
           cy="447"
           rx="12.235294"
           ry="13" /><ellipse
           style="opacity:1;fill:#acb1b7;fill-opacity:1;stroke:none;stroke-width:25.5673;stroke-dasharray:none;stroke-opacity:1"
           id="ellipse9"
           cx="174"
           cy="348"
           rx="21.647058"
           ry="23" /><ellipse
           style="opacity:1;fill:#acb1b7;fill-opacity:1;stroke:none;stroke-width:18.8976;stroke-dasharray:none;stroke-opacity:1"
           id="ellipse10"
           cx="311.86621"
           cy="387"
           rx="16"
           ry="17" /><ellipse
           style="opacity:1;fill:#acb1b7;fill-opacity:1;stroke:none;stroke-width:11.811;stroke-dasharray:none;stroke-opacity:1"
           id="ellipse11"
           cx="259"
           cy="321.83594"
           rx="10"
           ry="10.625" /><ellipse
           style="opacity:1;fill:#acb1b7;fill-opacity:1;stroke:none;stroke-width:18.8976;stroke-dasharray:none;stroke-opacity:1"
           id="ellipse12"
           cx="275"
           cy="208"
           rx="16"
           ry="17" /><ellipse
           style="opacity:1;fill:#acb1b7;fill-opacity:1;stroke:none;stroke-width:30.7086;stroke-dasharray:none;stroke-opacity:1"
           id="ellipse13"
           cx="410"
           cy="287.83594"
           rx="26"
           ry="27.625" /><ellipse
           style="opacity:1;fill:#acb1b7;fill-opacity:1;stroke:none;stroke-width:10.6299;stroke-dasharray:none;stroke-opacity:1"
           id="ellipse14"
           cx="372"
           cy="198"
           rx="9"
           ry="9.5625" /><ellipse
           style="opacity:1;fill:#acb1b7;fill-opacity:1;stroke:none;stroke-width:18.8976;stroke-dasharray:none;stroke-opacity:1"
           id="ellipse15"
           cx="477"
           cy="201"
           rx="16"
           ry="17" /><ellipse
           style="opacity:1;fill:#acb1b7;fill-opacity:1;stroke:none;stroke-width:18.8976;stroke-dasharray:none;stroke-opacity:1"
           id="ellipse16"
           cx="439"
           cy="131"
           rx="16"
           ry="17" /></g><g
         id="g27"
         transform="matrix(0.68040522,-0.68040522,0.70326121,0.70326121,-232.41182,968.82498)"><path
           d="M 357.803,72.196 338.092,52.485 C 339.275,51.159 340,49.416 340,47.5 340,43.357 336.642,40 332.5,40 h -195 c -4.142,0 -7.5,3.357 -7.5,7.5 0,1.917 0.725,3.66 1.908,4.985 L 112.197,72.196 C 110.79,73.603 110,75.51 110,77.5 v 355 c 0,1.989 0.79,3.896 2.197,5.304 l 19.711,19.711 c -1.183,1.326 -1.908,3.069 -1.908,4.985 0,4.143 3.358,7.5 7.5,7.5 h 195 c 4.142,0 7.5,-3.357 7.5,-7.5 0,-1.917 -0.725,-3.66 -1.908,-4.985 l 19.711,-19.711 C 359.21,436.397 360,434.49 360,432.5 v -355 c 0,-1.99 -0.79,-3.897 -2.197,-5.304 z M 345,106.128 c -26.071,70.474 -84.351,125.647 -156.161,147.718 -3.959,1.217 -6.183,5.413 -4.966,9.372 0.991,3.226 3.959,5.299 7.167,5.299 0.729,0 1.472,-0.107 2.206,-0.333 C 258.492,248.13 313.215,202.338 345,142.659 m 0,93.973 C 310.806,329.061 223.171,391.818 125,394.872 V 279.391 c 12.53,-0.363 25.057,-1.62 37.339,-3.777 4.08,-0.716 6.806,-4.604 6.089,-8.684 -0.716,-4.081 -4.604,-6.807 -8.684,-6.09 -11.428,2.007 -23.084,3.185 -34.745,3.543 V 80.606 L 150.607,55 H 319.393 L 345,80.606 M 319.393,455 H 150.607 L 125,429.393 V 409.881 C 176.184,408.424 225.057,392.07 266.775,362.34 299.74,338.848 326.338,308.462 345,273.272 v 156.12 z"
           id="path1-9"
           style="fill:#4d4d4d;stroke:none"
           transform="matrix(0.3741277,0,0,0.3741277,794.07999,108.5798)" /><g
           id="g43"><path
             style="opacity:1;fill:#00ffff;fill-opacity:1;stroke:none;stroke-width:3.34066;stroke-dasharray:none;stroke-opacity:1"
             d="m 840.92674,234.69866 v -21.53915 l 2.60746,-0.11453 c 2.78121,-0.12215 7.83989,-0.65642 10.27267,-1.08493 2.33079,-0.41054 3.18622,-1.10924 3.34192,-2.72962 0.1052,-1.09488 -0.16052,-1.79 -0.94887,-2.48218 -0.85244,-0.74845 -1.52563,-0.81076 -4.19026,-0.38784 -2.25967,0.35865 -6.36131,0.78412 -9.53612,0.98919 l -1.5468,0.0999 v -34.3387 -34.3387 l 4.72755,-4.72998 4.72755,-4.72999 h 31.55707 31.55708 l 4.81595,4.81835 4.81596,4.81835 v 4.58482 4.58481 l -0.99376,2.48507 c -2.07842,5.19746 -5.40183,11.48323 -8.60417,16.27365 -11.33603,16.95766 -28.09241,29.77799 -47.0237,35.97791 -1.33205,0.43624 -2.48717,0.92985 -2.80827,1.20004 -1.08638,0.91412 -1.32765,2.40752 -0.59181,3.66313 0.89295,1.5237 2.19572,1.66674 5.42374,0.59548 22.2895,-7.39702 41.63101,-23.28852 53.33693,-43.82304 l 1.25966,-2.20971 0.003,17.32411 0.003,17.32412 -1.10225,2.74004 c -4.57271,11.36707 -11.72432,21.96471 -20.75722,30.75914 -15.49967,15.09047 -35.39487,24.01107 -57.1635,25.63095 -1.31257,0.0977 -2.56547,0.17779 -2.78423,0.17802 l -0.39775,4.3e-4 z"
             id="path26" /><path
             style="opacity:1;fill:#00ffff;fill-opacity:1;stroke:none;stroke-width:3.34066;stroke-dasharray:none;stroke-opacity:1"
             d="m 845.65429,273.95848 -4.72755,-4.72998 v -3.5677 -3.56768 l 0.7513,-0.0911 c 0.41322,-0.0501 1.66612,-0.13629 2.78423,-0.19151 4.94514,-0.24421 11.21842,-1.20915 16.79379,-2.58318 21.01064,-5.17799 39.53813,-17.24728 53.06537,-34.56818 2.16598,-2.77342 5.80569,-8.21833 7.48065,-11.19086 l 1.23744,-2.19607 0.0447,28.88925 0.0447,28.88925 -4.81649,4.81888 -4.81649,4.81888 h -31.55708 -31.55707 z"
             id="path27" /></g><path
           id="path28"
           style="opacity:1;fill:#4d4d4d;stroke-width:12.9906"
           d="m 512.47726,612.47775 h 19.25 v 80 h -30 z m 38.5,0 h -19.25 v 80 h 30 z"
           transform="matrix(1.0392436,0,0,0.12568352,329.40585,207.44146)" /><g
           id="g42"><circle
             style="opacity:1;fill:#ffffff;fill-opacity:1;stroke:#ffffff;stroke-width:19.3227;stroke-dasharray:none;stroke-opacity:1"
             id="circle32"
             cx="908.39697"
             cy="-261.57986"
             r="36.809834"
             transform="matrix(0.71868903,0.69533163,-0.71868903,0.69533163,0,0)"
             clip-path="url(#clipPath51)" /><circle
             style="opacity:1;fill:#ffffff;fill-opacity:1;stroke:#ffffff;stroke-width:19.3227;stroke-dasharray:none;stroke-opacity:1"
             id="circle33"
             cx="896.12701"
             cy="-217.61256"
             r="36.809834"
             transform="matrix(0.71868903,0.69533163,-0.71868903,0.69533163,0,0)"
             clip-path="url(#clipPath50)" /><circle
             style="opacity:1;fill:#ffffff;fill-opacity:1;stroke:#ffffff;stroke-width:19.3227;stroke-dasharray:none;stroke-opacity:1"
             id="circle34"
             cx="894.08203"
             cy="-166.48779"
             r="36.809834"
             transform="matrix(0.71868903,0.69533163,-0.71868903,0.69533163,0,0)"
             clip-path="url(#clipPath49)" /><circle
             style="opacity:1;fill:#ffffff;fill-opacity:1;stroke:#ffffff;stroke-width:19.3227;stroke-dasharray:none;stroke-opacity:1"
             id="circle35"
             cx="856.24969"
             cy="-123.54299"
             r="36.809834"
             transform="matrix(0.71868903,0.69533163,-0.71868903,0.69533163,0,0)"
             clip-path="url(#clipPath48)" /><circle
             style="opacity:1;fill:#ffffff;fill-opacity:1;stroke:#ffffff;stroke-width:19.3227;stroke-dasharray:none;stroke-opacity:1"
             id="circle36"
             cx="795.92249"
             cy="-124.56549"
             r="36.809834"
             transform="matrix(0.71868903,0.69533163,-0.71868903,0.69533163,0,0)"
             clip-path="url(#clipPath47)" /><circle
             style="opacity:1;fill:#ffffff;fill-opacity:1;stroke:#ffffff;stroke-width:19.3227;stroke-dasharray:none;stroke-opacity:1"
             id="circle37"
             cx="952.36426"
             cy="-301.45718"
             r="36.809834"
             transform="matrix(0.71868903,0.69533163,-0.71868903,0.69533163,0,0)"
             clip-path="url(#clipPath46)" /><circle
             style="opacity:1;fill:#ffffff;fill-opacity:1;stroke:#ffffff;stroke-width:19.3227;stroke-dasharray:none;stroke-opacity:1"
             id="circle38"
             cx="998.37659"
             cy="-318.8396"
             r="36.809834"
             transform="matrix(0.71868903,0.69533163,-0.71868903,0.69533163,0,0)"
             clip-path="url(#clipPath45)" /><circle
             style="opacity:1;fill:#ffffff;fill-opacity:1;stroke:#ffffff;stroke-width:19.3227;stroke-dasharray:none;stroke-opacity:1"
             id="circle39"
             cx="1055.6364"
             cy="-297.36722"
             r="36.809834"
             transform="matrix(0.71868903,0.69533163,-0.71868903,0.69533163,0,0)"
             clip-path="url(#clipPath44)" /><circle
             style="opacity:1;fill:#ffffff;fill-opacity:1;stroke:#ffffff;stroke-width:19.3227;stroke-dasharray:none;stroke-opacity:1"
             id="circle40"
             cx="1079.2577"
             cy="-324.97458"
             r="36.809834"
             transform="matrix(0.71868903,0.69533163,-0.71868903,0.69533163,0,0)"
             clip-path="url(#clipPath43)" /><circle
             style="opacity:1;fill:#ffffff;fill-opacity:1;stroke:#ffffff;stroke-width:19.3227;stroke-dasharray:none;stroke-opacity:1"
             id="circle41"
             cx="1106.7611"
             cy="-375.07684"
             r="36.809834"
             transform="matrix(0.71868903,0.69533163,-0.71868903,0.69533163,0,0)"
             clip-path="url(#clipPath32)" /><circle
             style="opacity:1;fill:#ffffff;fill-opacity:1;stroke:#ffffff;stroke-width:19.3227;stroke-dasharray:none;stroke-opacity:1"
             id="circle42"
             cx="1135.391"
             cy="-424.15665"
             r="36.809834"
             transform="matrix(0.71868903,0.69533163,-0.71868903,0.69533163,0,0)"
             clip-path="url(#clipPath31)" /><path
             style="opacity:1;fill:#ffffff;fill-opacity:1;stroke:#ffffff;stroke-width:18.8976;stroke-dasharray:none;stroke-opacity:1"
             d="m 670,829.55902 c 0,-0.51754 0.45856,-1.22439 1.01902,-1.57077 0.56045,-0.34638 2.24795,-2.96044 3.75,-5.80902 C 677.26425,817.44708 677.5,816.05045 677.5,806 c 0,-9.63352 -0.29398,-11.55902 -2.36651,-15.5 -1.30158,-2.475 -3.04996,-5.27771 -3.88529,-6.22824 -1.37301,-1.56236 -1.2797,-2.04225 0.97222,-5 5.34841,-7.02476 7.11821,-11.88517 7.5699,-20.78925 0.23765,-4.68462 -0.0242,-10.16991 -0.58181,-12.18952 -0.96229,-3.48514 -0.81477,-3.88136 2.89841,-7.78472 5.97736,-6.28351 9.12585,-13.29159 9.66294,-21.50827 l 0.45755,-7 5.32437,0.33896 c 10.96607,0.69812 24.21698,-5.51258 30.53661,-14.31251 2.27156,-3.16309 3.78237,-4.40387 4.85474,-3.98701 0.85628,0.33286 4.50537,0.85546 8.10909,1.16134 6.87367,0.58342 16.10684,-1.35297 20.78454,-4.35894 1.28522,-0.82591 2.428,-1.35319 2.5395,-1.17174 0.11151,0.18144 1.30997,2.77533 2.66324,5.76419 5.4025,11.93203 16.88775,19.67302 30.99321,20.88923 l 7.84574,0.67648 -5.9651,8 c -13.30284,17.8409 -45.33724,50.18913 -66.23581,66.88471 -15.32778,12.24514 -43.95145,31.15975 -57.6892,38.1212 C 670.51585,830.77903 670,830.91282 670,829.55902 Z"
             id="path42"
             transform="matrix(0.73485621,0.71097338,-0.73485621,0.71097338,882.73632,-523.57015)"
             clip-path="url(#clipPath30)" /><path
             id="rect27"
             style="opacity:1;fill:#ffffff;stroke-width:12.9906"
             d="m 523.72726,612.97775 8,-0.5 v 80 h -30 z m 16,0 -8,-0.5 v 80 h 30 z"
             transform="matrix(1.0392436,0,0,1.8852528,329.40583,-860.20093)" /></g></g><text
         xml:space="preserve"
         style="font-style:normal;font-variant:normal;font-weight:normal;font-stretch:normal;font-size:48px;line-height:normal;font-family:Orbitron;-inkscape-font-specification:Orbitron;text-decoration-color:#000000;white-space:pre;fill:#ff6600;stroke:none;stroke-width:18.8976"
         id="text1"
         transform="matrix(1.0307097,0,0,1.0307097,-41.899646,-41.698176)"><textPath
           xlink:href="#path1"
           id="textPath1"
           style="font-style:normal;font-variant:normal;font-weight:900;font-stretch:normal;font-size:48px;font-family:Orbitron;-inkscape-font-specification:'Orbitron Heavy';fill:#ff6600">ApolloSat</textPath></text><g
         id="g14"><circle
           style="fill:#ffffff;stroke:none;stroke-width:18.8976"
           id="circle4"
           cx="334.66861"
           cy="520.67322"
           r="5.6568542" /><circle
           style="fill:#ffffff;stroke:none;stroke-width:18.8976"
           id="circle5"
           cx="221.16861"
           cy="551.67322"
           r="5.6568542" /><circle
           style="fill:#ffffff;stroke:none;stroke-width:18.8976"
           id="circle6"
           cx="296.16861"
           cy="685.67322"
           r="5.6568542" /><circle
           style="fill:#ffffff;stroke:none;stroke-width:18.8976"
           id="circle7"
           cx="430.16861"
           cy="606.67322"
           r="5.6568542" /><circle
           style="fill:#ffffff;stroke:none;stroke-width:18.8976"
           id="circle8"
           cx="468.66861"
           cy="768.67322"
           r="5.6568542" /><circle
           style="fill:#ffffff;stroke:none;stroke-width:18.8976"
           id="circle9"
           cx="465.16864"
           cy="367.67322"
           r="5.6568542" /><circle
           style="fill:#ffffff;stroke:none;stroke-width:18.8976"
           id="circle10"
           cx="612.66864"
           cy="406.17322"
           r="5.6568542" /><circle
           style="fill:#ffffff;stroke:none;stroke-width:18.8976"
           id="circle11"
           cx="688.66864"
           cy="573.67322"
           r="5.6568542" /><circle
           style="fill:#ffffff;stroke:none;stroke-width:18.8976"
           id="circle12"
           cx="798.16864"
           cy="442.17322"
           r="5.6568542" /><circle
           style="fill:#ffffff;stroke:none;stroke-width:18.8976"
           id="circle13"
           cx="578.66864"
           cy="267.17322"
           r="5.6568542" /><circle
           style="fill:#ffffff;stroke:none;stroke-width:18.8976"
           id="circle14"
           cx="750.16864"
           cy="263.17322"
           r="5.6568542" /><circle
           style="fill:#ffffff;stroke:none;stroke-width:18.8976"
           id="path4"
           cx="750.16864"
           cy="263.17322"
           r="5.6568542" /></g><circle
         style="opacity:1;fill:none;fill-opacity:1;stroke:#4d4d4d;stroke-width:18.8976;stroke-dasharray:none;stroke-opacity:1"
         id="path1"
         cx="651.09882"
         cy="230.98416"
         r="400"
         transform="matrix(0.43645722,0.89972501,0.89972501,-0.43645722,0,0)" /></g><text
       xml:space="preserve"
       style="font-style:normal;font-variant:normal;font-weight:normal;font-stretch:normal;font-size:18.0509px;font-family:Orbitron;-inkscape-font-specification:'Orbitron, @wght=700';font-variant-ligatures:normal;font-variant-caps:normal;font-variant-numeric:normal;font-variant-east-asian:normal;font-variation-settings:'wght' 700;fill:#ff6600;stroke:none;stroke-width:1.50424"
       x="47.418919"
       y="148.70172"
       id="text2"><tspan
         id="tspan1"
         style="font-style:normal;font-variant:normal;font-weight:normal;font-stretch:normal;font-size:18.0509px;font-family:Orbitron;-inkscape-font-specification:'Orbitron, @wght=700';font-variant-ligatures:normal;font-variant-caps:normal;font-variant-numeric:normal;font-variant-east-asian:normal;font-variation-settings:'wght' 700;stroke:none;stroke-width:1.50424"
         x="47.418919"
         y="148.70172">ApolloSat 2024-25</tspan></text><text
       xml:space="preserve"
       style="font-style:normal;font-variant:normal;font-weight:normal;font-stretch:normal;font-size:6.9578px;font-family:Orbitron;-inkscape-font-specification:'Orbitron, @wght=700';font-variant-ligatures:normal;font-variant-caps:normal;font-variant-numeric:normal;font-variant-east-asian:normal;font-variation-settings:'wght' 700;fill:#ff9955;stroke:none;stroke-width:0.264583"
       x="48.222347"
       y="162.21552"
       id="text3"><tspan
         id="tspan2"
         style="fill:#ff9955;stroke-width:0.264583"
         x="48.222347"
         y="162.21552">Where space is the limit.</tspan></text></g></svg>
